<svg width="73" height="19" viewBox="0 0 73 19" fill="none" xmlns="http://www.w3.org/2000/svg">
<g opacity="0.6">
<path d="M29.008 13.8H35.056V15H27.728V4.44H29.008V13.8ZM40.1281 6.84C40.8855 6.84 41.5521 7.00533 42.1281 7.336C42.7148 7.66667 43.1735 8.14667 43.5041 8.776C43.8348 9.39467 44.0001 10.136 44.0001 11C44.0001 11.864 43.8348 12.6107 43.5041 13.24C43.1735 13.8587 42.7148 14.3333 42.1281 14.664C41.5521 14.9947 40.8855 15.16 40.1281 15.16C39.3815 15.16 38.7148 14.9947 38.1281 14.664C37.5415 14.3333 37.0828 13.8587 36.7521 13.24C36.4215 12.6107 36.2561 11.864 36.2561 11C36.2561 10.136 36.4215 9.39467 36.7521 8.776C37.0828 8.14667 37.5415 7.66667 38.1281 7.336C38.7148 7.00533 39.3815 6.84 40.1281 6.84ZM40.1281 7.944C39.5841 7.944 39.1201 8.06667 38.7361 8.312C38.3521 8.55733 38.0535 8.90933 37.8401 9.368C37.6375 9.816 37.5361 10.36 37.5361 11C37.5361 11.6293 37.6375 12.1733 37.8401 12.632C38.0535 13.0907 38.3521 13.4427 38.7361 13.688C39.1201 13.9333 39.5841 14.056 40.1281 14.056C40.6721 14.056 41.1361 13.9333 41.5201 13.688C41.9041 13.4427 42.1975 13.0907 42.4001 12.632C42.6135 12.1733 42.7201 11.6293 42.7201 11C42.7201 10.36 42.6135 9.816 42.4001 9.368C42.1975 8.90933 41.9041 8.55733 41.5201 8.312C41.1361 8.06667 40.6721 7.944 40.1281 7.944ZM51.0819 9.832C51.0819 9.23467 50.9219 8.776 50.6019 8.456C50.2819 8.12533 49.8285 7.96 49.2419 7.96C48.6872 7.96 48.2179 8.08267 47.8339 8.328C47.4499 8.56267 47.1672 8.94667 46.9859 9.48L45.9459 8.84C46.1592 8.24267 46.5539 7.76267 47.1299 7.4C47.7059 7.02667 48.4205 6.84 49.2739 6.84C49.8499 6.84 50.3725 6.94133 50.8419 7.144C51.3112 7.336 51.6792 7.63467 51.9459 8.04C52.2232 8.43467 52.3619 8.94667 52.3619 9.576V13.448C52.3619 13.832 52.5645 14.024 52.9699 14.024C53.1725 14.024 53.3699 13.9973 53.5619 13.944L53.4979 14.952C53.2845 15.0587 53.0072 15.112 52.6659 15.112C52.3565 15.112 52.0792 15.0533 51.8339 14.936C51.5885 14.8187 51.3965 14.6427 51.2579 14.408C51.1192 14.1627 51.0499 13.8587 51.0499 13.496V13.336L51.3699 13.384C51.2419 13.8 51.0232 14.1413 50.7139 14.408C50.4045 14.664 50.0579 14.856 49.6739 14.984C49.2899 15.1013 48.9112 15.16 48.5379 15.16C48.0685 15.16 47.6312 15.08 47.2259 14.92C46.8205 14.76 46.4952 14.52 46.2499 14.2C46.0152 13.8693 45.8979 13.464 45.8979 12.984C45.8979 12.3867 46.0952 11.896 46.4899 11.512C46.8952 11.1173 47.4552 10.8507 48.1699 10.712L51.3379 10.088V11.144L48.7619 11.672C48.2392 11.7787 47.8499 11.928 47.5939 12.12C47.3379 12.312 47.2099 12.5787 47.2099 12.92C47.2099 13.2507 47.3379 13.5227 47.5939 13.736C47.8605 13.9387 48.2339 14.04 48.7139 14.04C49.0232 14.04 49.3165 14.0027 49.5939 13.928C49.8819 13.8427 50.1379 13.72 50.3619 13.56C50.5859 13.3893 50.7619 13.1813 50.8899 12.936C51.0179 12.68 51.0819 12.3813 51.0819 12.04V9.832ZM55.4724 15V7H56.5924L56.7044 8.792L56.4964 8.616C56.667 8.18933 56.8964 7.848 57.1844 7.592C57.4724 7.32533 57.803 7.13333 58.1764 7.016C58.5604 6.89867 58.955 6.84 59.3604 6.84C59.9364 6.84 60.459 6.952 60.9284 7.176C61.3977 7.38933 61.771 7.72 62.0484 8.168C62.3364 8.616 62.4804 9.18667 62.4804 9.88V15H61.2004V10.328C61.2004 9.44267 61.0084 8.82933 60.6244 8.488C60.251 8.136 59.787 7.96 59.2324 7.96C58.8484 7.96 58.4644 8.05067 58.0804 8.232C57.6964 8.41333 57.3764 8.70667 57.1204 9.112C56.875 9.51733 56.7524 10.0613 56.7524 10.744V15H55.4724ZM68.2586 15.16C67.48 15.16 66.76 14.9947 66.0986 14.664C65.448 14.3333 64.9466 13.864 64.5946 13.256L65.6826 12.472C65.9173 12.9627 66.2586 13.3467 66.7066 13.624C67.1653 13.9013 67.7146 14.04 68.3546 14.04C68.92 14.04 69.3626 13.9333 69.6826 13.72C70.0026 13.496 70.1626 13.208 70.1626 12.856C70.1626 12.632 70.088 12.4293 69.9386 12.248C69.8 12.056 69.528 11.9173 69.1226 11.832L67.2026 11.432C66.424 11.272 65.864 11.0053 65.5226 10.632C65.192 10.2587 65.0266 9.79467 65.0266 9.24C65.0266 8.80267 65.1493 8.40267 65.3946 8.04C65.6506 7.67733 66.008 7.38933 66.4666 7.176C66.936 6.952 67.4853 6.84 68.1146 6.84C68.904 6.84 69.5706 6.99467 70.1146 7.304C70.6586 7.61333 71.064 8.05067 71.3306 8.616L70.2586 9.32C70.0773 8.85067 69.784 8.50933 69.3786 8.296C68.9733 8.072 68.552 7.96 68.1146 7.96C67.7306 7.96 67.4 8.01333 67.1226 8.12C66.856 8.22667 66.648 8.376 66.4986 8.568C66.36 8.74933 66.2906 8.95733 66.2906 9.192C66.2906 9.42667 66.3706 9.64533 66.5306 9.848C66.6906 10.04 66.9893 10.1787 67.4266 10.264L69.4266 10.68C70.1733 10.8293 70.696 11.0747 70.9946 11.416C71.2933 11.7573 71.4426 12.1733 71.4426 12.664C71.4426 13.1653 71.3093 13.608 71.0426 13.992C70.776 14.3653 70.4026 14.6533 69.9226 14.856C69.4426 15.0587 68.888 15.16 68.2586 15.16Z" fill="#213F7D"/>
<g clip-path="url(#clip0_53975_815)">
<path opacity="0.4" d="M6.00006 4H10.0001L11.4813 1.7775C11.5316 1.7022 11.5604 1.61468 11.5648 1.52427C11.5692 1.43386 11.549 1.34396 11.5063 1.26415C11.4636 1.18433 11.4 1.11761 11.3224 1.07109C11.2447 1.02457 11.1559 0.999998 11.0654 1H4.93569C4.84517 0.999998 4.75635 1.02457 4.67871 1.07109C4.60106 1.11761 4.5375 1.18433 4.4948 1.26415C4.4521 1.34396 4.43187 1.43386 4.43627 1.52427C4.44066 1.61468 4.46952 1.7022 4.51975 1.7775L6.00006 4ZM10.0001 5H6.00006C-0.324311 8.60625 0.00287671 13.395 0.00287671 14C0.00287671 15.6562 1.53756 17 3.43038 17H12.5704C14.4635 17 15.9979 15.6562 15.9979 14C15.9979 13.4062 16.2901 8.58625 10.0001 5Z" fill="#213F7D"/>
<path d="M10.5312 4.25V4.75C10.5312 4.8163 10.5049 4.87989 10.458 4.92678C10.4111 4.97366 10.3476 5 10.2812 5H5.71875C5.65245 5 5.58886 4.97366 5.54197 4.92678C5.49509 4.87989 5.46875 4.8163 5.46875 4.75V4.25C5.46875 4.1837 5.49509 4.12011 5.54197 4.07322C5.58886 4.02634 5.65245 4 5.71875 4H10.2812C10.3476 4 10.4111 4.02634 10.458 4.07322C10.5049 4.12011 10.5312 4.1837 10.5312 4.25Z" fill="#213F7D"/>
<path d="M5.87516 13.2037V10.9409H5V10.2549H5.87516V8H7.11301L8.34297 10.2549H9.17871V8H10.1248V10.2549H11V10.9409H10.1248V13.2037H8.88699L7.64126 10.9409H6.82129V13.2037H5.87516ZM6.82129 10.184V10.2549H7.26281L6.80552 9.33246H6.79763L6.82129 10.184ZM9.19448 11.8949H9.21025L9.17871 11.0749V10.9409H8.71354L8.74507 10.9882L9.19448 11.8949Z" fill="#213F7D"/>
</g>
</g>
<defs>
<clipPath id="clip0_53975_815">
<rect width="16" height="16" fill="white" transform="translate(0 1)"/>
</clipPath>
</defs>
</svg>
